<?xml version="1.0" encoding="utf-8"?>
<!-- Generator: Adobe Illustrator 22.0.0, SVG Export Plug-In . SVG Version: 6.00 Build 0)  -->
<svg version="1.1" id="Camada_1" xmlns="http://www.w3.org/2000/svg" xmlns:xlink="http://www.w3.org/1999/xlink" x="0px" y="0px"
	 viewBox="0 0 40 40" style="enable-background:new 0 0 40 40;" xml:space="preserve">
<style type="text/css">
	.st0{fill:#D22828;}
	.st1{fill:#FFFFFF;}
</style>
<path class="st0" d="M30.5,16.6v14.1h-1.2c-1.9,0-3.5-1.6-3.5-3.5v-7c0-1.9,1.6-3.5,3.5-3.5H30.5z M35.2,30.2v1.6
	c0,3.2-2.6,5.9-5.9,5.9h-2.6C26.3,39,25,40,23.5,40h-4.7c-1.9,0-3.5-1.6-3.5-3.5c0-1.9,1.6-3.5,3.5-3.5h4.7c1.5,0,2.8,1,3.3,2.3h2.6
	c1.9,0,3.5-1.6,3.5-3.5c0-3.8,0-12.6,0-16.4c0-2.7-0.9-5.4-2.3-7.5L27.7,9c-0.7,0.3-1.6,0-2.3-0.5c-3.3-2-7.7-2-11,0
	c-0.9,0.6-1.9,0.6-2.3,0.5L9.4,7.9C8,10,7.1,12.7,7.1,15.4c0,6,0,9.6,0,15.2c-3.9,0-7.1-3.2-7.1-7C0,20.5,2,18,4.8,17v-1.6
	C4.8,7.1,11.6,0,20,0c8.5,0,15.2,7.1,15.2,15.4V17c2.7,1,4.8,3.5,4.8,6.6C40,26.6,38,29.2,35.2,30.2z M14.1,20.1v7
	c0,1.9-1.6,3.5-3.5,3.5H9.5V16.6h1.2C12.6,16.6,14.1,18.1,14.1,20.1z"/>
</svg>
